<svg version="1.1" id="Layer_1" xmlns="http://www.w3.org/2000/svg" xmlns:xlink="http://www.w3.org/1999/xlink" x="0px" y="0px"
	 width="100%" viewBox="0 0 2000 1500" enable-background="new 0 0 2000 1500" xml:space="preserve">
<path fill="#FFFFFF" opacity="1.000000" stroke="none" 
	d="
M1362.000000,1501.000000 
	C908.000122,1501.000000 454.500275,1501.000000 1.000304,1501.000000 
	C1.000203,1001.000305 1.000203,501.000580 1.000101,1.000640 
	C667.666199,1.000426 1334.332397,1.000426 2000.998901,1.000213 
	C2000.999268,500.999359 2000.999268,1000.998718 2000.999634,1500.999023 
	C1788.166626,1501.000000 1575.333374,1501.000000 1362.000000,1501.000000 
M868.138306,1185.244873 
	C900.959045,1201.085083 934.218201,1215.824585 969.500000,1225.455811 
	C983.734375,1229.341553 998.094482,1231.719482 1012.923096,1229.373657 
	C1035.757324,1225.761475 1057.354248,1218.051514 1078.632202,1209.424927 
	C1139.372192,1184.799438 1196.803833,1153.689209 1252.698730,1119.673462 
	C1297.254639,1092.558228 1340.435791,1063.493408 1380.348267,1029.705322 
	C1405.387939,1008.507812 1423.297241,983.914795 1429.418823,950.572571 
	C1438.173218,902.890015 1442.807495,854.880310 1443.743042,806.581848 
	C1444.607300,761.961670 1444.107422,717.277222 1442.778687,672.663635 
	C1441.558838,631.708618 1437.223267,590.974060 1429.095947,550.688293 
	C1423.908203,524.973450 1413.815552,502.231140 1393.569214,484.790131 
	C1381.332275,474.248688 1369.558105,463.111420 1356.803833,453.239380 
	C1298.058960,407.769440 1234.714111,369.504913 1169.073242,334.965485 
	C1128.143555,313.428802 1086.408325,293.693939 1042.250244,279.427307 
	C1016.512390,271.111969 991.092712,269.392365 964.825195,277.665466 
	C938.592957,285.927460 913.074768,295.818512 888.145386,307.274139 
	C826.814941,335.456787 768.205200,368.596039 711.670715,405.396423 
	C676.895935,428.032593 643.304077,452.238739 612.229492,479.923920 
	C590.453552,499.324738 577.281372,522.671875 571.703674,551.331482 
	C562.472412,598.764099 558.188171,646.668823 557.264465,694.801392 
	C556.401794,739.754944 556.903076,784.772095 558.229309,829.719177 
	C559.437866,870.675537 563.787842,911.411621 571.963074,951.687012 
	C577.145691,977.219299 587.078491,999.989075 607.408875,1017.053711 
	C627.164429,1033.635864 646.554871,1050.784790 667.373047,1065.944458 
	C730.336304,1111.794189 797.528320,1150.712280 868.138306,1185.244873 
z"/>
<path fill="#FF0235" opacity="1.000000" stroke="none" 
	d="
M867.786621,1185.114014 
	C797.528320,1150.712280 730.336304,1111.794189 667.373047,1065.944458 
	C646.554871,1050.784790 627.164429,1033.635864 607.408875,1017.053711 
	C587.078491,999.989075 577.145691,977.219299 571.963074,951.687012 
	C563.787842,911.411621 559.437866,870.675537 558.229309,829.719177 
	C556.903076,784.772095 556.401794,739.754944 557.264465,694.801392 
	C558.188171,646.668823 562.472412,598.764099 571.703674,551.331482 
	C577.281372,522.671875 590.453552,499.324738 612.229492,479.923920 
	C643.304077,452.238739 676.895935,428.032593 711.670715,405.396423 
	C768.205200,368.596039 826.814941,335.456787 888.145386,307.274139 
	C913.074768,295.818512 938.592957,285.927460 964.825195,277.665466 
	C991.092712,269.392365 1016.512390,271.111969 1042.250244,279.427307 
	C1086.408325,293.693939 1128.143555,313.428802 1169.073242,334.965485 
	C1234.714111,369.504913 1298.058960,407.769440 1356.803833,453.239380 
	C1369.558105,463.111420 1381.332275,474.248688 1393.569214,484.790131 
	C1413.815552,502.231140 1423.908203,524.973450 1429.095947,550.688293 
	C1437.223267,590.974060 1441.558838,631.708618 1442.778687,672.663635 
	C1444.107422,717.277222 1444.607300,761.961670 1443.743042,806.581848 
	C1442.807495,854.880310 1438.173218,902.890015 1429.418823,950.572571 
	C1423.297241,983.914795 1405.387939,1008.507812 1380.348267,1029.705322 
	C1340.435791,1063.493408 1297.254639,1092.558228 1252.698730,1119.673462 
	C1196.803833,1153.689209 1139.372192,1184.799438 1078.632202,1209.424927 
	C1057.354248,1218.051514 1035.757324,1225.761475 1012.923096,1229.373657 
	C998.094482,1231.719482 983.734375,1229.341553 969.500000,1225.455811 
	C934.218201,1215.824585 900.959045,1201.085083 867.786621,1185.114014 
M880.332886,1160.163574 
	C908.594971,1173.929688 937.324158,1186.487915 967.203796,1196.480835 
	C989.738953,1204.017456 1011.814148,1204.568237 1034.098511,1196.238037 
	C1047.325317,1191.293701 1060.855225,1187.071655 1073.812256,1181.508179 
	C1154.487915,1146.867920 1230.293335,1103.384521 1302.899536,1054.211670 
	C1328.014038,1037.202759 1352.415405,1019.215637 1374.309937,998.081238 
	C1384.588989,988.159119 1393.899170,977.487061 1397.640625,963.263123 
	C1400.387451,952.820557 1403.094971,942.317078 1404.890137,931.683716 
	C1412.338379,887.565002 1415.263794,842.998108 1415.821777,798.347534 
	C1416.338013,757.043945 1415.973389,715.702087 1414.777832,674.412292 
	C1413.664185,635.956482 1410.059814,597.662842 1403.104858,559.717163 
	C1398.847900,536.491821 1389.826294,516.212769 1371.217285,500.978577 
	C1356.019409,488.536774 1341.282593,475.453400 1325.435669,463.896301 
	C1264.119263,419.178192 1198.802246,380.990723 1131.054810,346.931641 
	C1097.322998,329.973419 1063.123657,314.037140 1026.676636,303.557343 
	C1011.902771,299.309296 997.212097,297.812958 981.908875,301.637848 
	C958.239685,307.553772 935.677307,316.366852 913.541077,326.311829 
	C839.301514,359.664703 768.921875,399.962433 701.477783,445.412384 
	C675.363464,463.010529 649.897156,481.529175 627.110413,503.429199 
	C616.695618,513.438782 607.153809,524.138123 603.382874,538.565247 
	C600.652222,549.012268 597.898193,559.504700 596.108826,570.137390 
	C588.628479,614.588196 585.676636,659.483398 585.162964,704.471497 
	C584.693298,745.609558 585.024963,786.783936 586.233032,827.906189 
	C587.357910,866.194275 590.945312,904.322083 597.882690,942.103333 
	C602.146423,965.323425 611.011353,985.761902 629.745483,1000.829285 
	C650.361816,1017.410767 670.595154,1034.588135 692.191650,1049.808350 
	C751.590637,1091.669922 814.528809,1127.672119 880.332886,1160.163574 
z"/>
<path fill="#FFF9FA" opacity="1.000000" stroke="none" 
	d="
M879.981323,1160.037964 
	C814.528809,1127.672119 751.590637,1091.669922 692.191650,1049.808350 
	C670.595154,1034.588135 650.361816,1017.410767 629.745483,1000.829285 
	C611.011353,985.761902 602.146423,965.323425 597.882690,942.103333 
	C590.945312,904.322083 587.357910,866.194275 586.233032,827.906189 
	C585.024963,786.783936 584.693298,745.609558 585.162964,704.471497 
	C585.676636,659.483398 588.628479,614.588196 596.108826,570.137390 
	C597.898193,559.504700 600.652222,549.012268 603.382874,538.565247 
	C607.153809,524.138123 616.695618,513.438782 627.110413,503.429199 
	C649.897156,481.529175 675.363464,463.010529 701.477783,445.412384 
	C768.921875,399.962433 839.301514,359.664703 913.541077,326.311829 
	C935.677307,316.366852 958.239685,307.553772 981.908875,301.637848 
	C997.212097,297.812958 1011.902771,299.309296 1026.676636,303.557343 
	C1063.123657,314.037140 1097.322998,329.973419 1131.054810,346.931641 
	C1198.802246,380.990723 1264.119263,419.178192 1325.435669,463.896301 
	C1341.282593,475.453400 1356.019409,488.536774 1371.217285,500.978577 
	C1389.826294,516.212769 1398.847900,536.491821 1403.104858,559.717163 
	C1410.059814,597.662842 1413.664185,635.956482 1414.777832,674.412292 
	C1415.973389,715.702087 1416.338013,757.043945 1415.821777,798.347534 
	C1415.263794,842.998108 1412.338379,887.565002 1404.890137,931.683716 
	C1403.094971,942.317078 1400.387451,952.820557 1397.640625,963.263123 
	C1393.899170,977.487061 1384.588989,988.159119 1374.309937,998.081238 
	C1352.415405,1019.215637 1328.014038,1037.202759 1302.899536,1054.211670 
	C1230.293335,1103.384521 1154.487915,1146.867920 1073.812256,1181.508179 
	C1060.855225,1187.071655 1047.325317,1191.293701 1034.098511,1196.238037 
	C1011.814148,1204.568237 989.738953,1204.017456 967.203796,1196.480835 
	C937.324158,1186.487915 908.594971,1173.929688 879.981323,1160.037964 
M932.862854,329.250641 
	C926.305725,332.091553 919.708984,334.844940 913.197388,337.786743 
	C846.190491,368.059143 782.476440,404.283539 721.110291,444.668030 
	C691.188110,464.359467 662.049988,485.131287 635.867432,509.793243 
	C622.482117,522.401123 613.754150,537.206299 609.775085,555.306458 
	C600.828186,596.004639 598.007446,637.336731 596.061462,678.763672 
	C593.792664,727.060059 593.857361,775.382568 596.057190,823.682007 
	C597.808105,862.125244 600.815796,900.432007 607.828979,938.377930 
	C612.007629,960.987427 621.122192,980.416748 639.087830,995.234558 
	C651.032532,1005.086304 662.514832,1015.552246 674.914062,1024.790405 
	C736.467163,1070.651245 802.410339,1109.386353 870.809631,1144.007935 
	C904.194824,1160.906616 938.096924,1176.651978 974.145264,1187.286255 
	C990.327515,1192.060181 1006.496155,1193.723877 1022.730835,1188.240967 
	C1040.189331,1182.344604 1057.909424,1176.973267 1074.818359,1169.742798 
	C1145.059326,1139.706299 1211.249512,1102.095947 1275.175171,1060.445557 
	C1306.585938,1039.980225 1337.337402,1018.561768 1364.604614,992.605896 
	C1375.324097,982.401917 1384.839966,971.324158 1388.443726,956.435303 
	C1390.750244,946.906372 1393.304199,937.403931 1394.946167,927.753296 
	C1402.480347,883.469299 1405.440918,838.726746 1405.766968,793.912109 
	C1406.095459,748.780579 1405.237061,703.615845 1403.744507,658.503906 
	C1402.693115,626.725342 1398.918579,595.129456 1393.178345,563.766785 
	C1389.005493,540.966858 1379.703369,521.453003 1361.626953,506.511871 
	C1350.846802,497.601532 1340.523315,488.096497 1329.371216,479.685242 
	C1268.739136,433.955048 1203.565674,395.544525 1136.099609,360.926758 
	C1102.951050,343.917816 1069.165771,328.375092 1033.698486,316.596588 
	C1012.245056,309.472015 991.121338,308.172974 969.700439,316.011230 
	C957.688171,320.406738 945.633484,324.686279 932.862854,329.250641 
z"/>
<path fill="#FF0033" opacity="1.000000" stroke="none" 
	d="
M933.230347,329.134338 
	C945.633484,324.686279 957.688171,320.406738 969.700439,316.011230 
	C991.121338,308.172974 1012.245056,309.472015 1033.698486,316.596588 
	C1069.165771,328.375092 1102.951050,343.917816 1136.099609,360.926758 
	C1203.565674,395.544525 1268.739136,433.955048 1329.371216,479.685242 
	C1340.523315,488.096497 1350.846802,497.601532 1361.626953,506.511871 
	C1379.703369,521.453003 1389.005493,540.966858 1393.178345,563.766785 
	C1398.918579,595.129456 1402.693115,626.725342 1403.744507,658.503906 
	C1405.237061,703.615845 1406.095459,748.780579 1405.766968,793.912109 
	C1405.440918,838.726746 1402.480347,883.469299 1394.946167,927.753296 
	C1393.304199,937.403931 1390.750244,946.906372 1388.443726,956.435303 
	C1384.839966,971.324158 1375.324097,982.401917 1364.604614,992.605896 
	C1337.337402,1018.561768 1306.585938,1039.980225 1275.175171,1060.445557 
	C1211.249512,1102.095947 1145.059326,1139.706299 1074.818359,1169.742798 
	C1057.909424,1176.973267 1040.189331,1182.344604 1022.730835,1188.240967 
	C1006.496155,1193.723877 990.327515,1192.060181 974.145264,1187.286255 
	C938.096924,1176.651978 904.194824,1160.906616 870.809631,1144.007935 
	C802.410339,1109.386353 736.467163,1070.651245 674.914062,1024.790405 
	C662.514832,1015.552246 651.032532,1005.086304 639.087830,995.234558 
	C621.122192,980.416748 612.007629,960.987427 607.828979,938.377930 
	C600.815796,900.432007 597.808105,862.125244 596.057190,823.682007 
	C593.857361,775.382568 593.792664,727.060059 596.061462,678.763672 
	C598.007446,637.336731 600.828186,596.004639 609.775085,555.306458 
	C613.754150,537.206299 622.482117,522.401123 635.867432,509.793243 
	C662.049988,485.131287 691.188110,464.359467 721.110291,444.668030 
	C782.476440,404.283539 846.190491,368.059143 913.197388,337.786743 
	C919.708984,334.844940 926.305725,332.091553 933.230347,329.134338 
M1150.292725,738.200623 
	C1124.690674,720.873901 1096.694580,708.085205 1068.777710,695.136658 
	C1061.691406,691.849915 1054.585327,688.562134 1047.732300,684.827209 
	C1038.973755,680.053589 1036.352417,673.675659 1038.476196,663.918335 
	C1040.134033,656.301270 1044.142090,650.127441 1050.143921,645.230774 
	C1058.594238,638.336548 1068.461792,633.918396 1078.978149,632.230408 
	C1105.255981,628.012573 1131.696533,624.819092 1158.035034,620.962769 
	C1166.875854,619.668335 1175.780518,618.212646 1184.328613,615.711853 
	C1190.816040,613.813904 1191.513184,610.850586 1189.604736,604.264221 
	C1189.196167,602.854492 1189.188354,601.310120 1189.123413,599.822266 
	C1188.680786,589.667175 1188.610962,579.482605 1187.774658,569.360962 
	C1186.473389,553.613342 1185.096069,537.846985 1182.904541,522.207153 
	C1181.493042,512.134094 1175.428345,507.482330 1165.331909,506.006134 
	C1160.085449,505.239014 1154.934082,503.842651 1149.715210,502.861267 
	C1145.839722,502.132568 1141.920166,501.061798 1138.028198,501.094452 
	C1117.033936,501.270721 1096.029053,501.400848 1075.052124,502.188599 
	C1035.761108,503.664093 996.528259,505.951324 957.875000,513.950806 
	C923.490417,521.066833 890.212219,531.168152 859.955444,549.609863 
	C817.249329,575.639648 794.355225,613.363647 795.348816,663.646851 
	C795.863953,689.718384 802.805237,714.971130 813.633423,738.824951 
	C819.072998,750.807922 825.998352,761.867188 838.944275,763.831970 
	C841.366455,768.349792 842.409302,772.561279 845.094116,774.829163 
	C850.638916,779.513184 857.037292,783.193848 863.129883,787.218567 
	C865.347656,788.683533 867.776550,789.833374 869.967651,791.333557 
	C878.004272,796.836304 885.384033,803.757080 894.118469,807.676392 
	C907.861084,813.843079 922.712097,817.494934 936.680725,823.219604 
	C945.036377,826.643921 953.025146,831.396240 960.411438,836.633728 
	C968.071594,842.065491 970.949707,850.551575 970.915955,859.867432 
	C970.892883,866.237732 968.185730,871.353516 962.281738,873.905212 
	C957.288574,876.063354 952.029724,877.963989 946.698608,878.921387 
	C923.162903,883.148010 899.473633,880.499084 875.908325,879.335022 
	C849.143005,878.012939 823.411621,871.050781 798.295288,861.845154 
	C793.068359,859.929443 789.829468,861.754517 789.174316,867.276428 
	C788.745850,870.888123 788.519348,874.683350 789.135742,878.234436 
	C794.570312,909.546814 800.161194,940.832703 805.910461,972.088745 
	C806.313843,974.281921 807.877747,976.982178 809.714111,978.050354 
	C814.413940,980.783997 819.368164,983.580444 824.585205,984.832031 
	C841.064636,988.785461 857.632690,992.485901 874.316772,995.433655 
	C888.650085,997.966064 902.749023,1001.606445 917.701416,1000.973450 
	C949.659973,999.620605 981.666321,999.207275 1013.657898,998.879333 
	C1042.728271,998.581360 1070.433594,992.406067 1097.026733,980.959290 
	C1130.944702,966.359802 1161.725464,947.264221 1184.801636,917.685486 
	C1215.576416,878.238525 1221.536377,835.654175 1199.769653,790.052673 
	C1189.094482,767.687927 1171.725464,751.444214 1150.292725,738.200623 
z"/>
<path fill="#FFFFFF" opacity="1.000000" stroke="none" 
	d="
M1150.584717,738.414429 
	C1171.725464,751.444214 1189.094482,767.687927 1199.769653,790.052673 
	C1221.536377,835.654175 1215.576416,878.238525 1184.801636,917.685486 
	C1161.725464,947.264221 1130.944702,966.359802 1097.026733,980.959290 
	C1070.433594,992.406067 1042.728271,998.581360 1013.657898,998.879333 
	C981.666321,999.207275 949.659973,999.620605 917.701416,1000.973450 
	C902.749023,1001.606445 888.650085,997.966064 874.316772,995.433655 
	C857.632690,992.485901 841.064636,988.785461 824.585205,984.832031 
	C819.368164,983.580444 814.413940,980.783997 809.714111,978.050354 
	C807.877747,976.982178 806.313843,974.281921 805.910461,972.088745 
	C800.161194,940.832703 794.570312,909.546814 789.135742,878.234436 
	C788.519348,874.683350 788.745850,870.888123 789.174316,867.276428 
	C789.829468,861.754517 793.068359,859.929443 798.295288,861.845154 
	C823.411621,871.050781 849.143005,878.012939 875.908325,879.335022 
	C899.473633,880.499084 923.162903,883.148010 946.698608,878.921387 
	C952.029724,877.963989 957.288574,876.063354 962.281738,873.905212 
	C968.185730,871.353516 970.892883,866.237732 970.915955,859.867432 
	C970.949707,850.551575 968.071594,842.065491 960.411438,836.633728 
	C953.025146,831.396240 945.036377,826.643921 936.680725,823.219604 
	C922.712097,817.494934 907.861084,813.843079 894.118469,807.676392 
	C885.384033,803.757080 878.004272,796.836304 869.967651,791.333557 
	C867.776550,789.833374 865.347656,788.683533 863.129883,787.218567 
	C857.037292,783.193848 850.638916,779.513184 845.094116,774.829163 
	C842.409302,772.561279 841.366455,768.349792 838.944275,763.831970 
	C825.998352,761.867188 819.072998,750.807922 813.633423,738.824951 
	C802.805237,714.971130 795.863953,689.718384 795.348816,663.646851 
	C794.355225,613.363647 817.249329,575.639648 859.955444,549.609863 
	C890.212219,531.168152 923.490417,521.066833 957.875000,513.950806 
	C996.528259,505.951324 1035.761108,503.664093 1075.052124,502.188599 
	C1096.029053,501.400848 1117.033936,501.270721 1138.028198,501.094452 
	C1141.920166,501.061798 1145.839722,502.132568 1149.715210,502.861267 
	C1154.934082,503.842651 1160.085449,505.239014 1165.331909,506.006134 
	C1175.428345,507.482330 1181.493042,512.134094 1182.904541,522.207153 
	C1185.096069,537.846985 1186.473389,553.613342 1187.774658,569.360962 
	C1188.610962,579.482605 1188.680786,589.667175 1189.123413,599.822266 
	C1189.188354,601.310120 1189.196167,602.854492 1189.604736,604.264221 
	C1191.513184,610.850586 1190.816040,613.813904 1184.328613,615.711853 
	C1175.780518,618.212646 1166.875854,619.668335 1158.035034,620.962769 
	C1131.696533,624.819092 1105.255981,628.012573 1078.978149,632.230408 
	C1068.461792,633.918396 1058.594238,638.336548 1050.143921,645.230774 
	C1044.142090,650.127441 1040.134033,656.301270 1038.476196,663.918335 
	C1036.352417,673.675659 1038.973755,680.053589 1047.732300,684.827209 
	C1054.585327,688.562134 1061.691406,691.849915 1068.777710,695.136658 
	C1096.694580,708.085205 1124.690674,720.873901 1150.584717,738.414429 
z"/>
</svg>